<?xml version="1.0" encoding="UTF-8" standalone="no"?>
<!DOCTYPE svg PUBLIC "-//W3C//DTD SVG 20010904//EN"
              "http://www.w3.org/TR/2001/REC-SVG-20010904/DTD/svg10.dtd">

<svg xmlns="http://www.w3.org/2000/svg"
     width="8.88889in" height="5.55556in"
     viewBox="0 0 640 400">
  <path id="leaf right"
        fill="none" stroke="black" stroke-width="1"
        d="M 228.50,168.75
           C 228.50,168.75 226.38,152.13 221.75,146.38
             221.38,146.13 237.63,118.50 268.63,120.38
             281.50,121.00 291.00,118.75 292.25,128.13
             293.50,137.50 275.13,169.63 258.50,176.25
             258.63,176.13 231.50,176.00 231.50,176.00
             231.50,176.00 263.63,144.38 263.63,144.38
             263.63,144.38 228.50,168.75 228.50,168.75 Z
           M 201.88,175.81
           C 201.88,175.81 148.94,175.56 148.94,175.56
             148.94,175.56 93.64,150.00 90.91,93.45
             90.73,93.27 93.82,86.36 125.64,86.36
             157.45,86.36 216.55,114.00 220.00,172.55
             220.00,172.91 178.36,127.45 142.00,122.00
             142.00,122.18 179.02,139.75 199.78,171.78
             199.88,171.75 201.88,175.81 201.88,175.81 Z
           M 344.90,189.55
           C 344.90,189.55 346.57,295.24 231.91,291.57
             172.57,290.24 124.57,261.24 122.24,194.57
             122.24,195.24 118.24,184.90 133.24,184.24
             148.24,183.57 338.51,184.37 338.51,184.37
             338.51,184.37 341.76,184.97 342.84,186.17
             342.84,186.17 344.87,188.43 344.90,189.55 Z" />
</svg>
